Coordinates
version=1
nRows=60
nColumns=12
inDegrees=yes

Units are S.I. units (second, meters, Newtons, ...)
Angles are in degrees

endheader
time	SC_y	SC_z	SC_x	AC_y	AC_z	AC_x	GH_y	GH_z	GH_yy	EL_x	PS_y
       0.0              -58.96          38.89          48.59          47.68           2.71         -4.683          133.6         -2.711         -165.7          23.48          113.0
   0.00726              -58.96          38.89          48.59          47.68           2.71         -4.681          133.6         -2.703         -165.7          23.49          113.0
   0.01452              -58.96          38.89          48.59          47.68           2.71         -4.678          133.6         -2.694         -165.6          23.49          112.9
   0.02178              -58.95          38.89          48.59          47.68           2.71         -4.675          133.5         -2.684         -165.6           23.5          112.9
   0.02904              -58.95          38.89          48.59          47.69           2.71         -4.672          133.5         -2.674         -165.6          23.51          112.9
    0.0363              -58.94          38.89           48.6          47.69          2.711         -4.669          133.5         -2.663         -165.6          23.51          112.9
   0.04356              -58.94          38.88           48.6          47.69          2.711         -4.666          133.5         -2.652         -165.5          23.52          112.9
   0.05082              -58.93          38.88           48.6          47.69          2.711         -4.662          133.5         -2.639         -165.5          23.53          112.9
   0.05808              -58.92          38.88           48.6           47.7          2.711         -4.658          133.5         -2.626         -165.4          23.54          112.9
   0.06534              -58.92          38.88          48.61           47.7          2.712         -4.654          133.5         -2.612         -165.4          23.55          112.9
    0.0726              -58.91          38.88          48.61           47.7          2.712         -4.649          133.5         -2.596         -165.4          23.56          112.9
   0.07986               -58.9          38.88          48.61           47.7          2.712         -4.644          133.5          -2.58         -165.3          23.57          112.8
   0.08712              -58.89          38.87          48.62          47.71          2.712         -4.639          133.5         -2.562         -165.3          23.58          112.8
   0.09438              -58.88          38.87          48.62          47.71          2.713         -4.633          133.5         -2.543         -165.2           23.6          112.8
    0.1016              -58.87          38.87          48.62          47.71          2.713         -4.627          133.5         -2.522         -165.1          23.61          112.8
    0.1089              -58.86          38.87          48.63          47.72          2.714          -4.62          133.5           -2.5         -165.1          23.62          112.8
    0.1162              -58.85          38.86          48.63          47.72          2.714         -4.613          133.4         -2.475         -165.0          23.64          112.7
    0.1234              -58.84          38.86          48.64          47.73          2.714         -4.605          133.4         -2.449         -164.9          23.66          112.7
    0.1307              -58.82          38.86          48.65          47.73          2.715         -4.597          133.4          -2.42         -164.8          23.68          112.7
    0.1379              -58.81          38.85          48.65          47.74          2.716         -4.587          133.4         -2.388         -164.7           23.7          112.7
    0.1452              -58.79          38.85          48.66          47.75          2.716         -4.577          133.4         -2.353         -164.6          23.72          112.6
    0.1525              -58.77          38.85          48.67          47.75          2.717         -4.565          133.4         -2.315         -164.5          23.75          112.6
    0.1597              -58.75          38.84          48.67          47.76          2.718         -4.552          133.3         -2.272         -164.4          23.78          112.5
     0.167              -58.73          38.84          48.68          47.77          2.718         -4.538          133.3         -2.225         -164.2          23.81          112.5
    0.1742               -58.7          38.83          48.69          47.78          2.719         -4.523          133.3         -2.173         -164.1          23.84          112.5
    0.1815              -58.67          38.82          48.71          47.79           2.72         -4.505          133.2         -2.115         -163.9          23.88          112.4
    0.1888              -58.64          38.82          48.72           47.8          2.722         -4.486          133.2         -2.049         -163.7          23.93          112.3
     0.196              -58.61          38.81          48.73          47.82          2.723         -4.464          133.2         -1.976         -163.5          23.98          112.3
    0.2033              -58.57           38.8          48.75          47.83          2.724         -4.439          133.1         -1.893         -163.2          24.03          112.2
    0.2105              -58.52          38.79          48.77          47.85          2.726         -4.411          133.1         -1.798         -163.0          24.09          112.1
    0.2178              -58.47          38.77          48.79          47.87          2.728         -4.379          133.0         -1.691         -162.6          24.17          112.0
    0.2251              -58.41          38.76          48.82          47.89           2.73         -4.342          133.0         -1.567         -162.3          24.25          111.9
    0.2323              -58.34          38.74          48.85          47.92          2.733         -4.299          132.9         -1.424         -161.8          24.34          111.7
    0.2396              -58.26          38.72          48.88          47.95          2.736          -4.25          132.8         -1.259         -161.3          24.46          111.6
    0.2468              -58.16           38.7          48.92          47.99          2.739         -4.192          132.7         -1.065         -160.7          24.59          111.4
    0.2541              -58.05          38.68          48.97          48.03          2.743         -4.124          132.6        -0.8359         -160.1          24.74          111.2
    0.2614              -57.92          38.65          49.02          48.08          2.748         -4.042          132.4        -0.5642         -159.2          24.92          110.9
    0.2686              -57.76          38.61          49.09          48.14          2.754         -3.945          132.3        -0.2385         -158.3          25.14          110.6
    0.2759              -57.56          38.56          49.17          48.22          2.761         -3.828          132.0         0.1556         -157.1           25.4          110.2
    0.2831              -57.33          38.51          49.26          48.31           2.77         -3.684          131.8          0.637         -155.6          25.73          109.8
    0.2904              -57.04          38.44          49.38          48.42           2.78         -3.506          131.5          1.231         -153.8          26.12          109.2
    0.2977              -56.68          38.35          49.53          48.56          2.794         -3.285          131.1          1.972         -151.6          26.62          108.5
    0.3049              -56.22          38.25          49.72          48.74           2.81         -3.007          130.6          2.905         -148.8          27.25          107.6
    0.3122              -55.64          38.11          49.96          48.96          2.832         -2.652          130.0          4.092         -145.2          28.04          106.5
    0.3194               -54.9          37.94          50.27          49.24          2.859         -2.199          129.2           5.61         -140.7          29.06          105.1
    0.3267              -53.95          37.71          50.66          49.61          2.894         -1.617          128.1          7.559         -134.8          30.36          103.2
     0.334              -52.73          37.43          51.17          50.08          2.938        -0.8738          126.8          10.05         -127.3          32.03          100.8
    0.3412               -51.2          37.07           51.8          50.67          2.994         0.0607          125.2          13.18         -117.9          34.13          97.86
    0.3485              -49.34          36.63          52.57          51.38          3.063            1.2          123.1          16.99         -106.4          36.68          94.24
    0.3557              -47.18          36.13          53.46          52.21          3.142           2.52          120.8          21.41         -93.11          39.65          90.04
     0.363              -44.84          35.58          54.43          53.11          3.228          3.949          118.3           26.2          -78.7          42.85          85.49
    0.3703               -42.5          35.03           55.4          54.01          3.313          5.378          115.7          30.99          -64.3          46.06          80.94
    0.3775              -40.35          34.52          56.29          54.85          3.392          6.698          113.4          35.41         -50.99          49.02          76.73
    0.3848              -38.48          34.08          57.06          55.56          3.461          7.837          111.4          39.22         -39.52          51.58          73.11
     0.392              -36.95          33.73          57.69          56.15          3.517          8.772          109.7          42.35          -30.1          53.68          70.14
    0.3993              -35.74          33.44           58.2          56.62          3.561          9.515          108.4          44.84         -22.61          55.34          67.77
    0.4066              -34.79          33.22          58.59          56.99          3.596           10.1          107.4          46.79         -16.74          56.65          65.92
    0.4138              -34.04          33.04           58.9          57.27          3.623          10.55          106.6          48.31         -12.17          57.67          64.48
    0.4211              -33.46          32.91          59.14          57.49          3.645           10.9          105.9           49.5         -8.604          58.46          63.35
    0.4283              -33.01           32.8          59.33          57.67          3.661          11.18          105.4          50.43         -5.796          59.09          62.46
